<svg xmlns="http://www.w3.org/2000/svg" xmlns:xlink="http://www.w3.org/1999/xlink" width="512" zoomAndPan="magnify" viewBox="0 0 384 383.999986" height="512" preserveAspectRatio="xMidYMid meet" version="1.0"><defs><g/><clipPath id="7443f350b7"><path d="M 31.265625 256 L 226.265625 256 L 226.265625 294.453125 L 31.265625 294.453125 Z M 31.265625 256 " clip-rule="nonzero"/></clipPath><clipPath id="d2362854a1"><path d="M 50 77.703125 L 226.265625 77.703125 L 226.265625 270 L 50 270 Z M 50 77.703125 " clip-rule="nonzero"/></clipPath></defs><rect x="-38.4" width="460.8" fill="#ffffff" y="-38.399999" height="460.799983" fill-opacity="1"/><rect x="-38.4" width="460.8" fill="#ffffff" y="-38.399999" height="460.799983" fill-opacity="1"/><g clip-path="url(#7443f350b7)"><path fill="#004aad" d="M 343.179688 256.191406 L 38.363281 256.191406 C 34.386719 256.191406 31.734375 258.847656 31.734375 262.820312 C 31.734375 280.710938 46.316406 294.628906 63.542969 294.628906 L 318 294.628906 C 335.890625 294.628906 349.808594 280.046875 349.808594 262.820312 C 349.808594 259.507812 347.15625 256.191406 343.179688 256.191406 Z M 343.179688 256.191406 " fill-opacity="1" fill-rule="nonzero"/></g><path fill="#004aad" d="M 211.3125 185.957031 L 194.085938 187.28125 L 202.039062 205.167969 L 195.410156 208.480469 L 187.457031 189.925781 L 174.867188 201.199219 L 174.867188 151.496094 Z M 211.3125 185.957031 " fill-opacity="1" fill-rule="nonzero"/><g clip-path="url(#d2362854a1)"><path fill="#004aad" d="M 305.410156 77.945312 L 76.132812 77.945312 C 61.550781 77.945312 50.292969 89.210938 50.292969 103.785156 L 50.292969 243.605469 C 50.292969 258.183594 61.558594 269.445312 76.132812 269.445312 L 305.410156 269.445312 C 319.992188 269.445312 331.25 258.179688 331.25 243.605469 L 331.25 103.785156 C 331.25 89.203125 319.984375 77.945312 305.410156 77.945312 Z M 305.410156 237.644531 C 305.410156 241.621094 302.757812 244.273438 298.78125 244.273438 L 82.761719 244.273438 C 78.785156 244.273438 76.132812 241.621094 76.132812 237.644531 L 76.132812 110.414062 C 76.132812 106.4375 78.785156 103.785156 82.761719 103.785156 L 298.78125 103.785156 C 302.757812 103.785156 305.410156 106.4375 305.410156 110.414062 Z M 305.410156 237.644531 " fill-opacity="1" fill-rule="nonzero"/></g><g fill="#004aad" fill-opacity="1"><g transform="translate(213.994484, 173.069744)"><g><path d="M 15.4375 -0.59375 C 14.664062 -0.257812 13.769531 -0.0195312 12.75 0.125 C 11.738281 0.269531 10.800781 0.34375 9.9375 0.34375 C 7.125 0.34375 4.921875 -0.390625 3.328125 -1.859375 C 1.734375 -3.328125 0.9375 -5.582031 0.9375 -8.625 C 0.9375 -11.726562 1.773438 -14.050781 3.453125 -15.59375 C 5.128906 -17.132812 7.488281 -17.90625 10.53125 -17.90625 C 11.976562 -17.90625 13.488281 -17.710938 15.0625 -17.328125 C 15.0625 -16.910156 15.019531 -16.289062 14.9375 -15.46875 C 14.851562 -14.65625 14.769531 -14.082031 14.6875 -13.75 L 12.734375 -13.75 C 11.304688 -13.75 10.179688 -13.722656 9.359375 -13.671875 C 8.546875 -13.617188 8.054688 -13.519531 7.890625 -13.375 C 7.578125 -13.09375 7.335938 -12.507812 7.171875 -11.625 C 7.003906 -10.75 6.921875 -9.90625 6.921875 -9.09375 C 6.921875 -7.6875 7.097656 -6.601562 7.453125 -5.84375 C 7.804688 -5.09375 8.25 -4.59375 8.78125 -4.34375 C 9.300781 -4.09375 10.160156 -3.96875 11.359375 -3.96875 C 12.316406 -3.96875 13.5625 -4.050781 15.09375 -4.21875 Z M 15.4375 -0.59375 "/></g></g></g><g fill="#004aad" fill-opacity="1"><g transform="translate(229.924213, 173.069744)"><g><path d="M 10.1875 0.40625 C 7.101562 0.40625 4.789062 -0.320312 3.25 -1.78125 C 1.707031 -3.238281 0.9375 -5.582031 0.9375 -8.8125 C 0.9375 -11.976562 1.78125 -14.285156 3.46875 -15.734375 C 5.164062 -17.179688 7.414062 -17.90625 10.21875 -17.90625 C 16.09375 -17.90625 19.03125 -14.976562 19.03125 -9.125 C 19.03125 -6.164062 18.3125 -3.835938 16.875 -2.140625 C 15.4375 -0.441406 13.207031 0.40625 10.1875 0.40625 Z M 10.0625 -3.265625 C 10.632812 -3.265625 11.117188 -3.359375 11.515625 -3.546875 C 11.910156 -3.742188 12.222656 -4.09375 12.453125 -4.59375 C 12.890625 -5.445312 13.109375 -6.832031 13.109375 -8.75 C 13.109375 -10.632812 12.890625 -12.003906 12.453125 -12.859375 C 12.015625 -13.722656 11.21875 -14.175781 10.0625 -14.21875 C 9.625 -14.21875 9.171875 -14.171875 8.703125 -14.078125 C 8.242188 -13.984375 7.953125 -13.851562 7.828125 -13.6875 C 7.578125 -13.394531 7.382812 -12.78125 7.25 -11.84375 C 7.113281 -10.90625 7.046875 -9.875 7.046875 -8.75 C 7.046875 -7.007812 7.210938 -5.738281 7.546875 -4.9375 C 7.773438 -4.332031 8.09375 -3.898438 8.5 -3.640625 C 8.914062 -3.390625 9.4375 -3.265625 10.0625 -3.265625 Z M 10.0625 -3.265625 "/></g></g></g><g fill="#004aad" fill-opacity="1"><g transform="translate(249.890719, 173.069744)"><g><path d="M 6.734375 -7.140625 L 6.734375 0 L 1.546875 0 L 1.546875 -17.703125 L 6.796875 -17.703125 L 11.484375 -10.5625 C 12.191406 -9.5 12.734375 -8.609375 13.109375 -7.890625 L 13.1875 -7.890625 L 13.1875 -17.703125 L 18.34375 -17.703125 L 18.34375 0 L 13.078125 0 L 8.265625 -7.453125 L 6.859375 -9.5625 L 6.765625 -9.5625 Z M 6.734375 -7.140625 "/></g></g></g><g fill="#004aad" fill-opacity="1"><g transform="translate(269.764067, 173.069744)"><g><path d="M 10.828125 0 L 5.25 0 L 5.25 -13.8125 L 0.25 -13.8125 L 0.25 -17.703125 L 15.828125 -17.703125 L 15.828125 -13.8125 L 10.828125 -13.8125 Z M 10.828125 0 "/></g></g></g><g fill="#004aad" fill-opacity="1"><g transform="translate(285.849056, 173.069744)"><g><path d="M 17.671875 0 L 11.796875 0 L 10.75 -4.46875 C 10.707031 -4.632812 10.640625 -4.921875 10.546875 -5.328125 C 10.453125 -5.734375 10.34375 -6.03125 10.21875 -6.21875 C 10.09375 -6.414062 9.914062 -6.546875 9.6875 -6.609375 C 9.101562 -6.585938 8.253906 -6.578125 7.140625 -6.578125 L 7.140625 0 L 1.546875 0 L 1.546875 -17.546875 C 4.054688 -17.734375 6.394531 -17.828125 8.5625 -17.828125 C 10.53125 -17.828125 12.125 -17.664062 13.34375 -17.34375 C 14.570312 -17.019531 15.488281 -16.46875 16.09375 -15.6875 C 16.707031 -14.914062 17.015625 -13.859375 17.015625 -12.515625 C 17.015625 -11.253906 16.722656 -10.265625 16.140625 -9.546875 C 15.566406 -8.828125 14.632812 -8.398438 13.34375 -8.265625 L 13.34375 -8.078125 C 14.070312 -8.015625 14.675781 -7.78125 15.15625 -7.375 C 15.644531 -6.96875 15.972656 -6.457031 16.140625 -5.84375 Z M 7.140625 -10.09375 C 7.328125 -10.070312 7.691406 -10.0625 8.234375 -10.0625 C 9.828125 -10.0625 10.753906 -10.195312 11.015625 -10.46875 C 11.265625 -10.707031 11.390625 -11.285156 11.390625 -12.203125 C 11.390625 -13.046875 11.164062 -13.625 10.71875 -13.9375 C 10.28125 -14.25 9.550781 -14.40625 8.53125 -14.40625 C 8.3125 -14.40625 7.847656 -14.382812 7.140625 -14.34375 Z M 7.140625 -10.09375 "/></g></g></g><g fill="#004aad" fill-opacity="1"><g transform="translate(303.859278, 173.069744)"><g><path d="M 10.1875 0.40625 C 7.101562 0.40625 4.789062 -0.320312 3.25 -1.78125 C 1.707031 -3.238281 0.9375 -5.582031 0.9375 -8.8125 C 0.9375 -11.976562 1.78125 -14.285156 3.46875 -15.734375 C 5.164062 -17.179688 7.414062 -17.90625 10.21875 -17.90625 C 16.09375 -17.90625 19.03125 -14.976562 19.03125 -9.125 C 19.03125 -6.164062 18.3125 -3.835938 16.875 -2.140625 C 15.4375 -0.441406 13.207031 0.40625 10.1875 0.40625 Z M 10.0625 -3.265625 C 10.632812 -3.265625 11.117188 -3.359375 11.515625 -3.546875 C 11.910156 -3.742188 12.222656 -4.09375 12.453125 -4.59375 C 12.890625 -5.445312 13.109375 -6.832031 13.109375 -8.75 C 13.109375 -10.632812 12.890625 -12.003906 12.453125 -12.859375 C 12.015625 -13.722656 11.21875 -14.175781 10.0625 -14.21875 C 9.625 -14.21875 9.171875 -14.171875 8.703125 -14.078125 C 8.242188 -13.984375 7.953125 -13.851562 7.828125 -13.6875 C 7.578125 -13.394531 7.382812 -12.78125 7.25 -11.84375 C 7.113281 -10.90625 7.046875 -9.875 7.046875 -8.75 C 7.046875 -7.007812 7.210938 -5.738281 7.546875 -4.9375 C 7.773438 -4.332031 8.09375 -3.898438 8.5 -3.640625 C 8.914062 -3.390625 9.4375 -3.265625 10.0625 -3.265625 Z M 10.0625 -3.265625 "/></g></g></g><g fill="#004aad" fill-opacity="1"><g transform="translate(323.825785, 173.069744)"><g><path d="M 1.484375 -17.703125 L 7.078125 -17.703125 L 7.078125 -4.09375 L 14.3125 -4.09375 L 14.3125 0 L 1.484375 0 Z M 1.484375 -17.703125 "/></g></g></g><g fill="#000000" fill-opacity="1"><g transform="translate(228.293843, 195.071987)"><g><path d="M 4.75 -7.640625 C 3.8125 -7.640625 3.082031 -7.335938 2.5625 -6.734375 C 2.039062 -6.128906 1.78125 -5.304688 1.78125 -4.265625 C 1.78125 -3.222656 2.050781 -2.390625 2.59375 -1.765625 C 3.132812 -1.140625 3.867188 -0.828125 4.796875 -0.828125 C 5.984375 -0.828125 6.875 -1.410156 7.46875 -2.578125 L 8.40625 -2.109375 C 8.050781 -1.378906 7.554688 -0.820312 6.921875 -0.4375 C 6.296875 -0.0625 5.570312 0.125 4.75 0.125 C 3.894531 0.125 3.15625 -0.0507812 2.53125 -0.40625 C 1.90625 -0.757812 1.429688 -1.265625 1.109375 -1.921875 C 0.785156 -2.585938 0.625 -3.367188 0.625 -4.265625 C 0.625 -5.609375 0.988281 -6.660156 1.71875 -7.421875 C 2.445312 -8.191406 3.453125 -8.578125 4.734375 -8.578125 C 5.640625 -8.578125 6.390625 -8.398438 6.984375 -8.046875 C 7.585938 -7.691406 8.035156 -7.171875 8.328125 -6.484375 L 7.234375 -6.125 C 7.035156 -6.613281 6.71875 -6.988281 6.28125 -7.25 C 5.851562 -7.507812 5.34375 -7.640625 4.75 -7.640625 Z M 4.75 -7.640625 "/></g></g></g><g fill="#000000" fill-opacity="1"><g transform="translate(244.29488, 195.071987)"><g><path d="M 7 0 L 6.03125 -2.46875 L 2.1875 -2.46875 L 1.21875 0 L 0.03125 0 L 3.46875 -8.453125 L 4.765625 -8.453125 L 8.171875 0 Z M 4.109375 -7.578125 L 4.046875 -7.421875 C 3.953125 -7.085938 3.804688 -6.660156 3.609375 -6.140625 L 2.53125 -3.359375 L 5.6875 -3.359375 L 4.609375 -6.15625 C 4.492188 -6.425781 4.378906 -6.738281 4.265625 -7.09375 Z M 4.109375 -7.578125 "/></g></g></g><g fill="#000000" fill-opacity="1"><g transform="translate(259.617918, 195.071987)"><g><path d="M 1 0 L 1 -8.453125 L 2.15625 -8.453125 L 2.15625 -0.9375 L 6.421875 -0.9375 L 6.421875 0 Z M 1 0 "/></g></g></g><g fill="#000000" fill-opacity="1"><g transform="translate(273.578956, 195.071987)"><g><path d="M 1.140625 0 L 1.140625 -8.453125 L 2.28125 -8.453125 L 2.28125 0 Z M 1.140625 0 "/></g></g></g><g fill="#000000" fill-opacity="1"><g transform="translate(284.119994, 195.071987)"><g><path d="M 8.28125 -4.3125 C 8.28125 -3.4375 8.109375 -2.671875 7.765625 -2.015625 C 7.429688 -1.367188 6.953125 -0.867188 6.328125 -0.515625 C 5.703125 -0.171875 4.984375 0 4.171875 0 L 1 0 L 1 -8.453125 L 3.796875 -8.453125 C 5.234375 -8.453125 6.335938 -8.09375 7.109375 -7.375 C 7.890625 -6.65625 8.28125 -5.632812 8.28125 -4.3125 Z M 7.125 -4.3125 C 7.125 -5.351562 6.835938 -6.148438 6.265625 -6.703125 C 5.691406 -7.253906 4.863281 -7.53125 3.78125 -7.53125 L 2.15625 -7.53125 L 2.15625 -0.921875 L 4.03125 -0.921875 C 4.65625 -0.921875 5.203125 -1.054688 5.671875 -1.328125 C 6.140625 -1.597656 6.5 -1.988281 6.75 -2.5 C 7 -3.007812 7.125 -3.613281 7.125 -4.3125 Z M 7.125 -4.3125 "/></g></g></g><g fill="#000000" fill-opacity="1"><g transform="translate(300.121032, 195.071987)"><g><path d="M 7 0 L 6.03125 -2.46875 L 2.1875 -2.46875 L 1.21875 0 L 0.03125 0 L 3.46875 -8.453125 L 4.765625 -8.453125 L 8.171875 0 Z M 4.109375 -7.578125 L 4.046875 -7.421875 C 3.953125 -7.085938 3.804688 -6.660156 3.609375 -6.140625 L 2.53125 -3.359375 L 5.6875 -3.359375 L 4.609375 -6.15625 C 4.492188 -6.425781 4.378906 -6.738281 4.265625 -7.09375 Z M 4.109375 -7.578125 "/></g></g></g><g fill="#000000" fill-opacity="1"><g transform="translate(315.44407, 195.071987)"><g><path d="M 8.28125 -4.3125 C 8.28125 -3.4375 8.109375 -2.671875 7.765625 -2.015625 C 7.429688 -1.367188 6.953125 -0.867188 6.328125 -0.515625 C 5.703125 -0.171875 4.984375 0 4.171875 0 L 1 0 L 1 -8.453125 L 3.796875 -8.453125 C 5.234375 -8.453125 6.335938 -8.09375 7.109375 -7.375 C 7.890625 -6.65625 8.28125 -5.632812 8.28125 -4.3125 Z M 7.125 -4.3125 C 7.125 -5.351562 6.835938 -6.148438 6.265625 -6.703125 C 5.691406 -7.253906 4.863281 -7.53125 3.78125 -7.53125 L 2.15625 -7.53125 L 2.15625 -0.921875 L 4.03125 -0.921875 C 4.65625 -0.921875 5.203125 -1.054688 5.671875 -1.328125 C 6.140625 -1.597656 6.5 -1.988281 6.75 -2.5 C 7 -3.007812 7.125 -3.613281 7.125 -4.3125 Z M 7.125 -4.3125 "/></g></g></g></svg>